<mxfile host="65bd71144e">
    <diagram id="BDEdEXeMBiZ1DJmHljp2" name="Page-1">
        <mxGraphModel dx="587" dy="1580" grid="1" gridSize="10" guides="1" tooltips="1" connect="1" arrows="1" fold="1" page="1" pageScale="1" pageWidth="850" pageHeight="1100" math="0" shadow="0">
            <root>
                <mxCell id="0"/>
                <mxCell id="1" parent="0"/>
                <mxCell id="2" value="" style="whiteSpace=wrap;html=1;fillColor=#1ba1e2;fontColor=#ffffff;strokeColor=#006EAF;" parent="1" vertex="1">
                    <mxGeometry x="240" y="-160" width="349" height="190" as="geometry"/>
                </mxCell>
                <mxCell id="3" value="Auth Module" style="text;html=1;align=center;verticalAlign=middle;resizable=0;points=[];autosize=1;strokeColor=none;fillColor=none;strokeWidth=3;fontSize=23;" parent="1" vertex="1">
                    <mxGeometry x="319" y="-150" width="150" height="40" as="geometry"/>
                </mxCell>
                <mxCell id="4" value="Signin Component" style="rounded=1;whiteSpace=wrap;html=1;strokeWidth=3;fontSize=23;" parent="1" vertex="1">
                    <mxGeometry x="269" y="-100" width="140" height="60" as="geometry"/>
                </mxCell>
                <mxCell id="5" value="SignUp&lt;br&gt;Component" style="rounded=1;whiteSpace=wrap;html=1;strokeWidth=3;fontSize=23;" parent="1" vertex="1">
                    <mxGeometry x="419" y="-100" width="140" height="60" as="geometry"/>
                </mxCell>
                <mxCell id="6" value="" style="whiteSpace=wrap;html=1;fillColor=#1ba1e2;fontColor=#ffffff;strokeColor=#006EAF;" parent="1" vertex="1">
                    <mxGeometry x="240" y="60" width="349" height="190" as="geometry"/>
                </mxCell>
                <mxCell id="7" value="&lt;font color=&quot;#000000&quot;&gt;Input Component&lt;/font&gt;" style="rounded=1;whiteSpace=wrap;html=1;strokeWidth=3;fontSize=23;fillColor=#eeeeee;strokeColor=#36393d;" parent="1" vertex="1">
                    <mxGeometry x="279" y="80" width="140" height="60" as="geometry"/>
                </mxCell>
                <mxCell id="9" value="" style="whiteSpace=wrap;html=1;fillColor=#1ba1e2;fontColor=#ffffff;strokeColor=#006EAF;" vertex="1" parent="1">
                    <mxGeometry x="300" y="270" width="260" height="80" as="geometry"/>
                </mxCell>
                <mxCell id="10" value="App Module" style="text;html=1;align=center;verticalAlign=middle;resizable=0;points=[];autosize=1;strokeColor=none;fillColor=none;" vertex="1" parent="1">
                    <mxGeometry x="385" y="270" width="90" height="30" as="geometry"/>
                </mxCell>
                <mxCell id="11" value="App Comonent" style="whiteSpace=wrap;html=1;fillColor=#f5f5f5;fontColor=#333333;strokeColor=#666666;" vertex="1" parent="1">
                    <mxGeometry x="370" y="300" width="120" height="40" as="geometry"/>
                </mxCell>
                <mxCell id="18" style="edgeStyle=none;html=1;entryX=0.5;entryY=1;entryDx=0;entryDy=0;exitX=0.5;exitY=0;exitDx=0;exitDy=0;" edge="1" parent="1" source="12" target="9">
                    <mxGeometry relative="1" as="geometry">
                        <mxPoint x="265" y="380" as="targetPoint"/>
                        <Array as="points">
                            <mxPoint x="260" y="390"/>
                            <mxPoint x="400" y="400"/>
                        </Array>
                    </mxGeometry>
                </mxCell>
                <mxCell id="12" value="" style="whiteSpace=wrap;html=1;" vertex="1" parent="1">
                    <mxGeometry x="170" y="440" width="190" height="120" as="geometry"/>
                </mxCell>
                <mxCell id="13" value="&quot; &quot;" style="whiteSpace=wrap;html=1;" vertex="1" parent="1">
                    <mxGeometry x="180" y="450" width="80" height="30" as="geometry"/>
                </mxCell>
                <mxCell id="14" value="'Signup'" style="whiteSpace=wrap;html=1;" vertex="1" parent="1">
                    <mxGeometry x="180" y="480" width="80" height="30" as="geometry"/>
                </mxCell>
                <mxCell id="15" value="sign in component" style="whiteSpace=wrap;html=1;" vertex="1" parent="1">
                    <mxGeometry x="270" y="450" width="80" height="30" as="geometry"/>
                </mxCell>
                <mxCell id="16" value="sign up component" style="whiteSpace=wrap;html=1;" vertex="1" parent="1">
                    <mxGeometry x="270" y="480" width="80" height="30" as="geometry"/>
                </mxCell>
                <mxCell id="17" value="Auth Routing Module" style="text;html=1;align=center;verticalAlign=middle;resizable=0;points=[];autosize=1;strokeColor=none;fillColor=none;" vertex="1" parent="1">
                    <mxGeometry x="195" y="530" width="140" height="30" as="geometry"/>
                </mxCell>
            </root>
        </mxGraphModel>
    </diagram>
</mxfile>